<svg xmlns="http://www.w3.org/2000/svg" viewBox="0 0 512 512" width="512" height="512">
<defs>
<linearGradient id="ring" x1="0" y1="0" x2="0" y2="1"><stop offset="0" stop-color="#a2def7"/><stop offset=".5" stop-color="#2fafe5"/><stop offset="1" stop-color="#166485"/></linearGradient>
<linearGradient id="acc" x1="0" y1="0" x2="1" y2="1"><stop offset="0" stop-color="#9cb2fc"/><stop offset="1" stop-color="#3461f4"/></linearGradient>
<linearGradient id="badge" x1="0" y1="0" x2="0" y2="1"><stop offset="0" stop-color="#47baeb"/><stop offset="1" stop-color="#136486"/></linearGradient>
<filter id="sh" x="-20%" y="-20%" width="140%" height="140%"><feDropShadow dx="0" dy="5" stdDeviation="5" flood-color="#000" flood-opacity=".35"/></filter>
<filter id="glow" x="-30%" y="-30%" width="160%" height="160%"><feGaussianBlur stdDeviation="9"/></filter>
</defs>
<g filter="url(#sh)">
<g transform="translate(88,168) rotate(78) scale(0.8,0.8)"><g><animateTransform attributeName="transform" type="rotate" values="-4;4;-4" dur="2.50s" begin="0.00s" repeatCount="indefinite" calcMode="spline" keyTimes="0;0.5;1" keySplines=".45 0 .55 1;.45 0 .55 1"/><path d="M0,0 C-20,-30 -60,-40 -100,-30 C-70,-14 -40,-4 0,0 Z" fill="url(#acc)" stroke="url(#ring)" stroke-width="2.5" stroke-linejoin="round"/><path d="M-6,-1 C-30,-4 -58,-4 -84,4" fill="none" stroke="#fff" stroke-opacity=".55" stroke-width="2" stroke-linecap="round"/></g></g>
<g transform="translate(424,168) rotate(-78) scale(-0.8,0.8)"><g><animateTransform attributeName="transform" type="rotate" values="-4;4;-4" dur="2.50s" begin="0.00s" repeatCount="indefinite" calcMode="spline" keyTimes="0;0.5;1" keySplines=".45 0 .55 1;.45 0 .55 1"/><path d="M0,0 C-20,-30 -60,-40 -100,-30 C-70,-14 -40,-4 0,0 Z" fill="url(#acc)" stroke="url(#ring)" stroke-width="2.5" stroke-linejoin="round"/><path d="M-6,-1 C-30,-4 -58,-4 -84,4" fill="none" stroke="#fff" stroke-opacity=".55" stroke-width="2" stroke-linecap="round"/></g></g>
<g transform="translate(88,205) rotate(58) scale(0.9,0.9)"><g><animateTransform attributeName="transform" type="rotate" values="-4;4;-4" dur="2.50s" begin="0.25s" repeatCount="indefinite" calcMode="spline" keyTimes="0;0.5;1" keySplines=".45 0 .55 1;.45 0 .55 1"/><path d="M0,0 C-20,-30 -60,-40 -100,-30 C-70,-14 -40,-4 0,0 Z" fill="url(#acc)" stroke="url(#ring)" stroke-width="2.5" stroke-linejoin="round"/><path d="M-6,-1 C-30,-4 -58,-4 -84,4" fill="none" stroke="#fff" stroke-opacity=".55" stroke-width="2" stroke-linecap="round"/></g></g>
<g transform="translate(424,205) rotate(-58) scale(-0.9,0.9)"><g><animateTransform attributeName="transform" type="rotate" values="-4;4;-4" dur="2.50s" begin="0.25s" repeatCount="indefinite" calcMode="spline" keyTimes="0;0.5;1" keySplines=".45 0 .55 1;.45 0 .55 1"/><path d="M0,0 C-20,-30 -60,-40 -100,-30 C-70,-14 -40,-4 0,0 Z" fill="url(#acc)" stroke="url(#ring)" stroke-width="2.5" stroke-linejoin="round"/><path d="M-6,-1 C-30,-4 -58,-4 -84,4" fill="none" stroke="#fff" stroke-opacity=".55" stroke-width="2" stroke-linecap="round"/></g></g>
<g transform="translate(222,424) rotate(-14) scale(0.9,0.9)"><g><animateTransform attributeName="transform" type="rotate" values="-3;3;-3" dur="2.50s" begin="0.00s" repeatCount="indefinite" calcMode="spline" keyTimes="0;0.5;1" keySplines=".45 0 .55 1;.45 0 .55 1"/><path d="M0,0 C-30,-10 -70,-5 -95,25 C-60,15 -30,12 0,0 Z" fill="url(#acc)" stroke="url(#ring)" stroke-width="2.5" stroke-linejoin="round"/><path d="M-6,-1 C-30,-4 -58,-4 -84,4" fill="none" stroke="#fff" stroke-opacity=".55" stroke-width="2" stroke-linecap="round"/></g></g>
<g transform="translate(290,424) rotate(14) scale(-0.9,0.9)"><g><animateTransform attributeName="transform" type="rotate" values="-3;3;-3" dur="2.50s" begin="0.00s" repeatCount="indefinite" calcMode="spline" keyTimes="0;0.5;1" keySplines=".45 0 .55 1;.45 0 .55 1"/><path d="M0,0 C-30,-10 -70,-5 -95,25 C-60,15 -30,12 0,0 Z" fill="url(#acc)" stroke="url(#ring)" stroke-width="2.5" stroke-linejoin="round"/><path d="M-6,-1 C-30,-4 -58,-4 -84,4" fill="none" stroke="#fff" stroke-opacity=".55" stroke-width="2" stroke-linecap="round"/></g></g>
<g transform="translate(222,424) rotate(8) scale(0.98,0.98)"><g><animateTransform attributeName="transform" type="rotate" values="-3;3;-3" dur="2.50s" begin="0.20s" repeatCount="indefinite" calcMode="spline" keyTimes="0;0.5;1" keySplines=".45 0 .55 1;.45 0 .55 1"/><path d="M0,0 C-30,-10 -70,-5 -95,25 C-60,15 -30,12 0,0 Z" fill="url(#acc)" stroke="url(#ring)" stroke-width="2.5" stroke-linejoin="round"/><path d="M-6,-1 C-30,-4 -58,-4 -84,4" fill="none" stroke="#fff" stroke-opacity=".55" stroke-width="2" stroke-linecap="round"/></g></g>
<g transform="translate(290,424) rotate(-8) scale(-0.98,0.98)"><g><animateTransform attributeName="transform" type="rotate" values="-3;3;-3" dur="2.50s" begin="0.20s" repeatCount="indefinite" calcMode="spline" keyTimes="0;0.5;1" keySplines=".45 0 .55 1;.45 0 .55 1"/><path d="M0,0 C-30,-10 -70,-5 -95,25 C-60,15 -30,12 0,0 Z" fill="url(#acc)" stroke="url(#ring)" stroke-width="2.5" stroke-linejoin="round"/><path d="M-6,-1 C-30,-4 -58,-4 -84,4" fill="none" stroke="#fff" stroke-opacity=".55" stroke-width="2" stroke-linecap="round"/></g></g>
<circle cx="256" cy="232" r="170" fill="none" stroke="url(#ring)" stroke-width="34.0"/>
<circle cx="256" cy="232" r="154.0" fill="none" stroke="#000" stroke-opacity=".18" stroke-width="3"/>
<circle cx="256" cy="232" r="186.0" fill="none" stroke="#fff" stroke-opacity=".55" stroke-width="3"/>
<g><animate attributeName="opacity" values=".55;1;.55" dur="2.20s" begin="0.00s" repeatCount="indefinite" calcMode="spline" keyTimes="0;0.5;1" keySplines=".45 0 .55 1;.45 0 .55 1"/>
<circle cx="279.7" cy="63.7" r="4.5" fill="#a2def7" stroke="#166485" stroke-width="1.5"/>
<circle cx="350.4" cy="90.6" r="4.5" fill="#a2def7" stroke="#166485" stroke-width="1.5"/>
<circle cx="402.4" cy="145.5" r="4.5" fill="#a2def7" stroke="#166485" stroke-width="1.5"/>
<circle cx="425.4" cy="217.6" r="4.5" fill="#a2def7" stroke="#166485" stroke-width="1.5"/>
<circle cx="414.9" cy="292.5" r="4.5" fill="#a2def7" stroke="#166485" stroke-width="1.5"/>
<circle cx="372.9" cy="355.5" r="4.5" fill="#a2def7" stroke="#166485" stroke-width="1.5"/>
<circle cx="109.6" cy="318.5" r="4.5" fill="#a2def7" stroke="#166485" stroke-width="1.5"/>
<circle cx="86.6" cy="246.4" r="4.5" fill="#a2def7" stroke="#166485" stroke-width="1.5"/>
<circle cx="97.1" cy="171.5" r="4.5" fill="#a2def7" stroke="#166485" stroke-width="1.5"/>
<circle cx="139.1" cy="108.5" r="4.5" fill="#a2def7" stroke="#166485" stroke-width="1.5"/>
<circle cx="204.3" cy="70.1" r="4.5" fill="#a2def7" stroke="#166485" stroke-width="1.5"/>
</g>
<g transform="rotate(0 256 232)"><circle cx="256" cy="232" r="170" fill="none" stroke="#fff" stroke-opacity=".8" stroke-width="14.3" stroke-linecap="round" stroke-dasharray="90 978.1"><animateTransform attributeName="transform" type="rotate" values="0 256 232;-360 256 232" dur="4.00s" repeatCount="indefinite"/></circle></g>
<g transform="rotate(180 256 232)"><circle cx="256" cy="232" r="170" fill="none" stroke="#fff" stroke-opacity=".8" stroke-width="14.3" stroke-linecap="round" stroke-dasharray="90 978.1"><animateTransform attributeName="transform" type="rotate" values="0 256 232;-360 256 232" dur="4.00s" repeatCount="indefinite"/></circle></g>
<g><animate attributeName="opacity" values="1;.55;1" dur="1.80s" begin="0.00s" repeatCount="indefinite" calcMode="spline" keyTimes="0;0.5;1" keySplines=".45 0 .55 1;.45 0 .55 1"/>
<path d="M89.78257315334051,113.13582421029184 L101.78257315334051,128.13582421029184 L89.78257315334051,143.13582421029184 L77.78257315334051,128.13582421029184 Z" fill="url(#acc)" stroke="#ffffff" stroke-opacity=".85" stroke-width="2.5" stroke-linejoin="round"/>
<path d="M422.21742684665946,113.13582421029184 L434.21742684665946,128.13582421029184 L422.21742684665946,143.13582421029184 L410.21742684665946,128.13582421029184 Z" fill="url(#acc)" stroke="#ffffff" stroke-opacity=".85" stroke-width="2.5" stroke-linejoin="round"/>
</g>
<g><animateTransform attributeName="transform" type="translate" values="0 0;0 -4;0 0" dur="2.40s" begin="0.00s" repeatCount="indefinite" calcMode="spline" keyTimes="0;0.5;1" keySplines=".45 0 .55 1;.45 0 .55 1"/>
<path d="M256,15.0 L272.0,35.0 L256,55.0 L240.0,35.0 Z" fill="url(#acc)" stroke="#ffffff" stroke-opacity=".85" stroke-width="2.5" stroke-linejoin="round"/>
<g transform="rotate(-20 256 232)"><circle cx="256" cy="45.0" r="9" fill="url(#acc)" stroke="#fff" stroke-opacity=".85" stroke-width="2.5"/></g>
<g transform="rotate(20 256 232)"><circle cx="256" cy="45.0" r="9" fill="url(#acc)" stroke="#fff" stroke-opacity=".85" stroke-width="2.5"/></g>
</g>
<g transform="translate(256,428)"><g><animateTransform attributeName="transform" type="scale" values="1;1.065;1" dur="1.80s" begin="0.00s" repeatCount="indefinite" calcMode="spline" keyTimes="0;0.5;1" keySplines=".45 0 .55 1;.45 0 .55 1"/><path d="M0,-56 L56,0 L0,56 L-56,0 Z" fill="url(#badge)" stroke="url(#ring)" stroke-width="7" stroke-linejoin="round"/><path d="M0,-56 L56,0 L0,56 L-56,0 Z" fill="none" stroke="#fff" stroke-opacity=".25" stroke-width="2" transform="scale(.82)"/><text x="0" y="15.1" text-anchor="middle" font-family="Arial Black, Arial, Helvetica, sans-serif" font-weight="900" font-size="42" fill="#fff" stroke="#072f40" stroke-width="5" paint-order="stroke" stroke-linejoin="round">52</text></g></g>
</g></svg>