<svg xmlns="http://www.w3.org/2000/svg" viewBox="0 0 512 512" width="512" height="512">
<defs>
<linearGradient id="ring" x1="0" y1="0" x2="0" y2="1"><stop offset="0" stop-color="#f9b9c1"/><stop offset=".5" stop-color="#e8465a"/><stop offset="1" stop-color="#9b1929"/></linearGradient>
<linearGradient id="acc" x1="0" y1="0" x2="1" y2="1"><stop offset="0" stop-color="#fcbd9c"/><stop offset="1" stop-color="#f47634"/></linearGradient>
<linearGradient id="badge" x1="0" y1="0" x2="0" y2="1"><stop offset="0" stop-color="#47eba0"/><stop offset="1" stop-color="#138651"/></linearGradient>
<filter id="sh" x="-20%" y="-20%" width="140%" height="140%"><feDropShadow dx="0" dy="5" stdDeviation="5" flood-color="#000" flood-opacity=".35"/></filter>
<filter id="glow" x="-30%" y="-30%" width="160%" height="160%"><feGaussianBlur stdDeviation="9"/></filter>
</defs>
<g filter="url(#sh)">
<g transform="translate(222,424) rotate(-14) scale(0.9,0.9)"><g><animateTransform attributeName="transform" type="rotate" values="-5;5;-5" dur="2.00s" begin="0.00s" repeatCount="indefinite" calcMode="spline" keyTimes="0;0.5;1" keySplines=".45 0 .55 1;.45 0 .55 1"/><path d="M0,0 C-10,-34 -70,-34 -90,0 C-70,20 -20,20 0,0 Z" fill="url(#acc)" stroke="url(#ring)" stroke-width="2.5" stroke-linejoin="round"/><path d="M-6,-1 C-30,-4 -58,-4 -84,4" fill="none" stroke="#fff" stroke-opacity=".55" stroke-width="2" stroke-linecap="round"/></g></g>
<g transform="translate(290,424) rotate(14) scale(-0.9,0.9)"><g><animateTransform attributeName="transform" type="rotate" values="-5;5;-5" dur="2.00s" begin="0.00s" repeatCount="indefinite" calcMode="spline" keyTimes="0;0.5;1" keySplines=".45 0 .55 1;.45 0 .55 1"/><path d="M0,0 C-10,-34 -70,-34 -90,0 C-70,20 -20,20 0,0 Z" fill="url(#acc)" stroke="url(#ring)" stroke-width="2.5" stroke-linejoin="round"/><path d="M-6,-1 C-30,-4 -58,-4 -84,4" fill="none" stroke="#fff" stroke-opacity=".55" stroke-width="2" stroke-linecap="round"/></g></g>
<circle cx="256" cy="232" r="170" fill="none" stroke="url(#ring)" stroke-width="24.0"/>
<circle cx="256" cy="232" r="159.0" fill="none" stroke="#000" stroke-opacity=".18" stroke-width="3"/>
<circle cx="256" cy="232" r="181.0" fill="none" stroke="#fff" stroke-opacity=".55" stroke-width="3"/>
<circle cx="256" cy="232" r="170" fill="none" stroke="#fff" stroke-opacity=".45" stroke-width="2"/>
<circle cx="256" cy="232" r="188.0" fill="none" stroke="url(#ring)" stroke-width="3"/>
<g transform="rotate(0 256 232)"><circle cx="256" cy="232" r="170" fill="none" stroke="#fff" stroke-opacity=".8" stroke-width="10.1" stroke-linecap="round" stroke-dasharray="90 978.1"><animateTransform attributeName="transform" type="rotate" values="0 256 232;-360 256 232" dur="3.40s" repeatCount="indefinite"/></circle></g>
<g><animateTransform attributeName="transform" type="translate" values="0 0;0 -4;0 0" dur="2.00s" begin="0.00s" repeatCount="indefinite" calcMode="spline" keyTimes="0;0.5;1" keySplines=".45 0 .55 1;.45 0 .55 1"/>
<path d="M256,24.0 L272.0,44.0 L256,64.0 L240.0,44.0 Z" fill="url(#acc)" stroke="#ffffff" stroke-opacity=".85" stroke-width="2.5" stroke-linejoin="round"/>
</g>
<g transform="translate(256,428)"><g><animateTransform attributeName="transform" type="scale" values="1;1.050;1" dur="2.50s" begin="0.00s" repeatCount="indefinite" calcMode="spline" keyTimes="0;0.5;1" keySplines=".45 0 .55 1;.45 0 .55 1"/><path d="M-44,-40 L44,-40 L44,14 L0,52 L-44,14 Z" fill="url(#badge)" stroke="url(#ring)" stroke-width="7" stroke-linejoin="round"/><path d="M-44,-40 L44,-40 L44,14 L0,52 L-44,14 Z" fill="none" stroke="#fff" stroke-opacity=".25" stroke-width="2" transform="scale(.82)"/><text x="0" y="11.1" text-anchor="middle" font-family="Arial Black, Arial, Helvetica, sans-serif" font-weight="900" font-size="42" fill="#fff" stroke="#074026" stroke-width="5" paint-order="stroke" stroke-linejoin="round">06</text></g></g>
</g></svg>