<svg xmlns="http://www.w3.org/2000/svg" viewBox="0 0 512 512" width="512" height="512">
<defs>
<linearGradient id="ring" x1="0" y1="0" x2="0" y2="1"><stop offset="0" stop-color="#f9b9cb"/><stop offset=".5" stop-color="#e84674"/><stop offset="1" stop-color="#9b193e"/></linearGradient>
<linearGradient id="acc" x1="0" y1="0" x2="1" y2="1"><stop offset="0" stop-color="#fcad9c"/><stop offset="1" stop-color="#f45734"/></linearGradient>
<linearGradient id="badge" x1="0" y1="0" x2="0" y2="1"><stop offset="0" stop-color="#eb4775"/><stop offset="1" stop-color="#861333"/></linearGradient>
<filter id="sh" x="-20%" y="-20%" width="140%" height="140%"><feDropShadow dx="0" dy="5" stdDeviation="5" flood-color="#000" flood-opacity=".35"/></filter>
<filter id="glow" x="-30%" y="-30%" width="160%" height="160%"><feGaussianBlur stdDeviation="9"/></filter>
</defs>
<circle cx="256" cy="232" r="174" fill="none" stroke="#fcad9c" stroke-opacity=".75" stroke-width="41.0" filter="url(#glow)"><animate attributeName="stroke-opacity" values=".35;.9;.35" dur="2.60s" begin="0.00s" repeatCount="indefinite" calcMode="spline" keyTimes="0;0.5;1" keySplines=".45 0 .55 1;.45 0 .55 1"/></circle>
<g filter="url(#sh)">
<g transform="translate(88,168) rotate(78) scale(0.8,0.8)"><g><animateTransform attributeName="transform" type="rotate" values="-6;6;-6" dur="3.00s" begin="0.00s" repeatCount="indefinite" calcMode="spline" keyTimes="0;0.5;1" keySplines=".45 0 .55 1;.45 0 .55 1"/><path d="M0,0 C-26,-20 -66,-18 -98,8 C-66,4 -32,10 0,0 Z" fill="url(#acc)" stroke="url(#ring)" stroke-width="2.5" stroke-linejoin="round"/><path d="M-6,-1 C-30,-4 -58,-4 -84,4" fill="none" stroke="#fff" stroke-opacity=".55" stroke-width="2" stroke-linecap="round"/></g></g>
<g transform="translate(424,168) rotate(-78) scale(-0.8,0.8)"><g><animateTransform attributeName="transform" type="rotate" values="-6;6;-6" dur="3.00s" begin="0.00s" repeatCount="indefinite" calcMode="spline" keyTimes="0;0.5;1" keySplines=".45 0 .55 1;.45 0 .55 1"/><path d="M0,0 C-26,-20 -66,-18 -98,8 C-66,4 -32,10 0,0 Z" fill="url(#acc)" stroke="url(#ring)" stroke-width="2.5" stroke-linejoin="round"/><path d="M-6,-1 C-30,-4 -58,-4 -84,4" fill="none" stroke="#fff" stroke-opacity=".55" stroke-width="2" stroke-linecap="round"/></g></g>
<g transform="translate(88,205) rotate(58) scale(0.9,0.9)"><g><animateTransform attributeName="transform" type="rotate" values="-6;6;-6" dur="3.00s" begin="0.25s" repeatCount="indefinite" calcMode="spline" keyTimes="0;0.5;1" keySplines=".45 0 .55 1;.45 0 .55 1"/><path d="M0,0 C-26,-20 -66,-18 -98,8 C-66,4 -32,10 0,0 Z" fill="url(#acc)" stroke="url(#ring)" stroke-width="2.5" stroke-linejoin="round"/><path d="M-6,-1 C-30,-4 -58,-4 -84,4" fill="none" stroke="#fff" stroke-opacity=".55" stroke-width="2" stroke-linecap="round"/></g></g>
<g transform="translate(424,205) rotate(-58) scale(-0.9,0.9)"><g><animateTransform attributeName="transform" type="rotate" values="-6;6;-6" dur="3.00s" begin="0.25s" repeatCount="indefinite" calcMode="spline" keyTimes="0;0.5;1" keySplines=".45 0 .55 1;.45 0 .55 1"/><path d="M0,0 C-26,-20 -66,-18 -98,8 C-66,4 -32,10 0,0 Z" fill="url(#acc)" stroke="url(#ring)" stroke-width="2.5" stroke-linejoin="round"/><path d="M-6,-1 C-30,-4 -58,-4 -84,4" fill="none" stroke="#fff" stroke-opacity=".55" stroke-width="2" stroke-linecap="round"/></g></g>
<g transform="translate(222,424) rotate(-14) scale(0.9,0.9)"><g><animateTransform attributeName="transform" type="rotate" values="-5;5;-5" dur="3.00s" begin="0.00s" repeatCount="indefinite" calcMode="spline" keyTimes="0;0.5;1" keySplines=".45 0 .55 1;.45 0 .55 1"/><path d="M0,0 C-20,-30 -60,-40 -100,-30 C-70,-14 -40,-4 0,0 Z" fill="url(#acc)" stroke="url(#ring)" stroke-width="2.5" stroke-linejoin="round"/><path d="M-6,-1 C-30,-4 -58,-4 -84,4" fill="none" stroke="#fff" stroke-opacity=".55" stroke-width="2" stroke-linecap="round"/></g></g>
<g transform="translate(290,424) rotate(14) scale(-0.9,0.9)"><g><animateTransform attributeName="transform" type="rotate" values="-5;5;-5" dur="3.00s" begin="0.00s" repeatCount="indefinite" calcMode="spline" keyTimes="0;0.5;1" keySplines=".45 0 .55 1;.45 0 .55 1"/><path d="M0,0 C-20,-30 -60,-40 -100,-30 C-70,-14 -40,-4 0,0 Z" fill="url(#acc)" stroke="url(#ring)" stroke-width="2.5" stroke-linejoin="round"/><path d="M-6,-1 C-30,-4 -58,-4 -84,4" fill="none" stroke="#fff" stroke-opacity=".55" stroke-width="2" stroke-linecap="round"/></g></g>
<g transform="translate(222,424) rotate(8) scale(0.98,0.98)"><g><animateTransform attributeName="transform" type="rotate" values="-5;5;-5" dur="3.00s" begin="0.20s" repeatCount="indefinite" calcMode="spline" keyTimes="0;0.5;1" keySplines=".45 0 .55 1;.45 0 .55 1"/><path d="M0,0 C-20,-30 -60,-40 -100,-30 C-70,-14 -40,-4 0,0 Z" fill="url(#acc)" stroke="url(#ring)" stroke-width="2.5" stroke-linejoin="round"/><path d="M-6,-1 C-30,-4 -58,-4 -84,4" fill="none" stroke="#fff" stroke-opacity=".55" stroke-width="2" stroke-linecap="round"/></g></g>
<g transform="translate(290,424) rotate(-8) scale(-0.98,0.98)"><g><animateTransform attributeName="transform" type="rotate" values="-5;5;-5" dur="3.00s" begin="0.20s" repeatCount="indefinite" calcMode="spline" keyTimes="0;0.5;1" keySplines=".45 0 .55 1;.45 0 .55 1"/><path d="M0,0 C-20,-30 -60,-40 -100,-30 C-70,-14 -40,-4 0,0 Z" fill="url(#acc)" stroke="url(#ring)" stroke-width="2.5" stroke-linejoin="round"/><path d="M-6,-1 C-30,-4 -58,-4 -84,4" fill="none" stroke="#fff" stroke-opacity=".55" stroke-width="2" stroke-linecap="round"/></g></g>
<g transform="translate(222,424) rotate(30) scale(1.06,1.06)"><g><animateTransform attributeName="transform" type="rotate" values="-5;5;-5" dur="3.00s" begin="0.40s" repeatCount="indefinite" calcMode="spline" keyTimes="0;0.5;1" keySplines=".45 0 .55 1;.45 0 .55 1"/><path d="M0,0 C-20,-30 -60,-40 -100,-30 C-70,-14 -40,-4 0,0 Z" fill="url(#acc)" stroke="url(#ring)" stroke-width="2.5" stroke-linejoin="round"/><path d="M-6,-1 C-30,-4 -58,-4 -84,4" fill="none" stroke="#fff" stroke-opacity=".55" stroke-width="2" stroke-linecap="round"/></g></g>
<g transform="translate(290,424) rotate(-30) scale(-1.06,1.06)"><g><animateTransform attributeName="transform" type="rotate" values="-5;5;-5" dur="3.00s" begin="0.40s" repeatCount="indefinite" calcMode="spline" keyTimes="0;0.5;1" keySplines=".45 0 .55 1;.45 0 .55 1"/><path d="M0,0 C-20,-30 -60,-40 -100,-30 C-70,-14 -40,-4 0,0 Z" fill="url(#acc)" stroke="url(#ring)" stroke-width="2.5" stroke-linejoin="round"/><path d="M-6,-1 C-30,-4 -58,-4 -84,4" fill="none" stroke="#fff" stroke-opacity=".55" stroke-width="2" stroke-linecap="round"/></g></g>
<circle cx="256" cy="232" r="170" fill="none" stroke="url(#ring)" stroke-width="29.0"/>
<circle cx="256" cy="232" r="156.5" fill="none" stroke="#000" stroke-opacity=".18" stroke-width="3"/>
<circle cx="256" cy="232" r="183.5" fill="none" stroke="#fff" stroke-opacity=".55" stroke-width="3"/>
<circle cx="256" cy="232" r="146.5" fill="none" stroke="url(#acc)" stroke-width="5"><animate attributeName="stroke-opacity" values=".5;1;.5" dur="2.40s" begin="0.00s" repeatCount="indefinite" calcMode="spline" keyTimes="0;0.5;1" keySplines=".45 0 .55 1;.45 0 .55 1"/></circle>
<g transform="rotate(0 256 232)"><circle cx="256" cy="232" r="170" fill="none" stroke="#fff" stroke-opacity=".8" stroke-width="12.2" stroke-linecap="round" stroke-dasharray="90 978.1"><animateTransform attributeName="transform" type="rotate" values="0 256 232;-360 256 232" dur="5.20s" repeatCount="indefinite"/></circle></g>
<g transform="rotate(180 256 232)"><circle cx="256" cy="232" r="170" fill="none" stroke="#fff" stroke-opacity=".8" stroke-width="12.2" stroke-linecap="round" stroke-dasharray="90 978.1"><animateTransform attributeName="transform" type="rotate" values="0 256 232;-360 256 232" dur="5.20s" repeatCount="indefinite"/></circle></g>
<g><animate attributeName="opacity" values="1;.55;1" dur="1.80s" begin="0.00s" repeatCount="indefinite" calcMode="spline" keyTimes="0;0.5;1" keySplines=".45 0 .55 1;.45 0 .55 1"/>
<circle cx="86" cy="232" r="12" fill="url(#acc)" stroke="#fff" stroke-opacity=".85" stroke-width="3"/>
<circle cx="426" cy="232" r="12" fill="url(#acc)" stroke="#fff" stroke-opacity=".85" stroke-width="3"/>
</g>
<g><animateTransform attributeName="transform" type="translate" values="0 0;0 -4;0 0" dur="2.80s" begin="0.00s" repeatCount="indefinite" calcMode="spline" keyTimes="0;0.5;1" keySplines=".45 0 .55 1;.45 0 .55 1"/>
<g transform="translate(256,55.5)"><path d="M-45,0 L-52,-38 L-26,-18 L0,-48 L26,-18 L52,-38 L45,0 Z" fill="url(#acc)" stroke="#fff" stroke-opacity=".85" stroke-width="3" stroke-linejoin="round"/><circle cx="-52" cy="-40" r="5" fill="#fff"/><circle cx="0" cy="-50" r="6" fill="#fff"/><circle cx="52" cy="-40" r="5" fill="#fff"/></g>
</g>
<g transform="translate(34,70)"><g><animateTransform attributeName="transform" type="scale" values="0.3;1;0.3" dur="2.00s" begin="0.00s" repeatCount="indefinite" calcMode="spline" keyTimes="0;0.5;1" keySplines=".45 0 .55 1;.45 0 .55 1"/><animate attributeName="opacity" values=".3;1;.3" dur="2.00s" begin="0.00s" repeatCount="indefinite" calcMode="spline" keyTimes="0;0.5;1" keySplines=".45 0 .55 1;.45 0 .55 1"/><path d="M0,-15 Q0,0 15,0 Q0,0 0,15 Q0,0 -15,0 Q0,0 0,-15 Z" fill="#fff" stroke="#f45734" stroke-width="1.5"/></g></g>
<g transform="translate(478,70)"><g><animateTransform attributeName="transform" type="scale" values="0.3;1;0.3" dur="2.00s" begin="0.50s" repeatCount="indefinite" calcMode="spline" keyTimes="0;0.5;1" keySplines=".45 0 .55 1;.45 0 .55 1"/><animate attributeName="opacity" values=".3;1;.3" dur="2.00s" begin="0.50s" repeatCount="indefinite" calcMode="spline" keyTimes="0;0.5;1" keySplines=".45 0 .55 1;.45 0 .55 1"/><path d="M0,-15 Q0,0 15,0 Q0,0 0,15 Q0,0 -15,0 Q0,0 0,-15 Z" fill="#fff" stroke="#f45734" stroke-width="1.5"/></g></g>
<g transform="translate(256,428)"><g><animateTransform attributeName="transform" type="scale" values="1;1.080;1" dur="2.50s" begin="0.00s" repeatCount="indefinite" calcMode="spline" keyTimes="0;0.5;1" keySplines=".45 0 .55 1;.45 0 .55 1"/><path d="M-20,-46 L20,-46 L46,-20 L46,20 L20,46 L-20,46 L-46,20 L-46,-20 Z" fill="url(#badge)" stroke="url(#ring)" stroke-width="7" stroke-linejoin="round"/><path d="M-20,-46 L20,-46 L46,-20 L46,20 L20,46 L-20,46 L-46,20 L-46,-20 Z" fill="none" stroke="#fff" stroke-opacity=".25" stroke-width="2" transform="scale(.82)"/><text x="0" y="15.1" text-anchor="middle" font-family="Arial Black, Arial, Helvetica, sans-serif" font-weight="900" font-size="42" fill="#fff" stroke="#400717" stroke-width="5" paint-order="stroke" stroke-linejoin="round">74</text></g></g>
</g></svg>