<svg xmlns="http://www.w3.org/2000/svg" viewBox="0 0 512 512" width="512" height="512">
<defs>
<linearGradient id="ring" x1="0" y1="0" x2="0" y2="1"><stop offset="0" stop-color="#b9f7f9"/><stop offset=".5" stop-color="#46e1e8"/><stop offset="1" stop-color="#19959b"/></linearGradient>
<linearGradient id="acc" x1="0" y1="0" x2="1" y2="1"><stop offset="0" stop-color="#9ccbfc"/><stop offset="1" stop-color="#3492f4"/></linearGradient>
<linearGradient id="badge" x1="0" y1="0" x2="0" y2="1"><stop offset="0" stop-color="#47e4eb"/><stop offset="1" stop-color="#138186"/></linearGradient>
<filter id="sh" x="-20%" y="-20%" width="140%" height="140%"><feDropShadow dx="0" dy="5" stdDeviation="5" flood-color="#000" flood-opacity=".35"/></filter>
<filter id="glow" x="-30%" y="-30%" width="160%" height="160%"><feGaussianBlur stdDeviation="9"/></filter>
</defs>
<g filter="url(#sh)">
<g transform="translate(222,424) rotate(-14) scale(0.9,0.9)"><g><animateTransform attributeName="transform" type="rotate" values="-5;5;-5" dur="2.50s" begin="0.00s" repeatCount="indefinite" calcMode="spline" keyTimes="0;0.5;1" keySplines=".45 0 .55 1;.45 0 .55 1"/><path d="M0,0 C-20,-30 -60,-40 -100,-30 C-70,-14 -40,-4 0,0 Z" fill="url(#acc)" stroke="url(#ring)" stroke-width="2.5" stroke-linejoin="round"/><path d="M-6,-1 C-30,-4 -58,-4 -84,4" fill="none" stroke="#fff" stroke-opacity=".55" stroke-width="2" stroke-linecap="round"/></g></g>
<g transform="translate(290,424) rotate(14) scale(-0.9,0.9)"><g><animateTransform attributeName="transform" type="rotate" values="-5;5;-5" dur="2.50s" begin="0.00s" repeatCount="indefinite" calcMode="spline" keyTimes="0;0.5;1" keySplines=".45 0 .55 1;.45 0 .55 1"/><path d="M0,0 C-20,-30 -60,-40 -100,-30 C-70,-14 -40,-4 0,0 Z" fill="url(#acc)" stroke="url(#ring)" stroke-width="2.5" stroke-linejoin="round"/><path d="M-6,-1 C-30,-4 -58,-4 -84,4" fill="none" stroke="#fff" stroke-opacity=".55" stroke-width="2" stroke-linecap="round"/></g></g>
<circle cx="256" cy="232" r="170" fill="none" stroke="url(#ring)" stroke-width="34.0"/>
<circle cx="256" cy="232" r="154.0" fill="none" stroke="#000" stroke-opacity=".18" stroke-width="3"/>
<circle cx="256" cy="232" r="186.0" fill="none" stroke="#fff" stroke-opacity=".55" stroke-width="3"/>
<g transform="rotate(0 256 232)"><circle cx="256" cy="232" r="170" fill="none" stroke="#fff" stroke-opacity=".8" stroke-width="14.3" stroke-linecap="round" stroke-dasharray="90 978.1"><animateTransform attributeName="transform" type="rotate" values="0 256 232;-360 256 232" dur="2.80s" repeatCount="indefinite"/></circle></g>
<g><animate attributeName="opacity" values="1;.55;1" dur="1.80s" begin="0.00s" repeatCount="indefinite" calcMode="spline" keyTimes="0;0.5;1" keySplines=".45 0 .55 1;.45 0 .55 1"/>
<path d="M89.78257315334051,113.13582421029184 L101.78257315334051,128.13582421029184 L89.78257315334051,143.13582421029184 L77.78257315334051,128.13582421029184 Z" fill="url(#acc)" stroke="#ffffff" stroke-opacity=".85" stroke-width="2.5" stroke-linejoin="round"/>
<path d="M422.21742684665946,113.13582421029184 L434.21742684665946,128.13582421029184 L422.21742684665946,143.13582421029184 L410.21742684665946,128.13582421029184 Z" fill="url(#acc)" stroke="#ffffff" stroke-opacity=".85" stroke-width="2.5" stroke-linejoin="round"/>
</g>
<g transform="translate(256,428)"><g><animateTransform attributeName="transform" type="scale" values="1;1.065;1" dur="2.50s" begin="0.00s" repeatCount="indefinite" calcMode="spline" keyTimes="0;0.5;1" keySplines=".45 0 .55 1;.45 0 .55 1"/><path d="M0,-56 L56,0 L0,56 L-56,0 Z" fill="url(#badge)" stroke="url(#ring)" stroke-width="7" stroke-linejoin="round"/><path d="M0,-56 L56,0 L0,56 L-56,0 Z" fill="none" stroke="#fff" stroke-opacity=".25" stroke-width="2" transform="scale(.82)"/><text x="0" y="15.1" text-anchor="middle" font-family="Arial Black, Arial, Helvetica, sans-serif" font-weight="900" font-size="42" fill="#fff" stroke="#073e40" stroke-width="5" paint-order="stroke" stroke-linejoin="round">10</text></g></g>
</g></svg>