<svg xmlns="http://www.w3.org/2000/svg" viewBox="0 0 512 512" width="512" height="512">
<defs>
<linearGradient id="ring" x1="0" y1="0" x2="0" y2="1"><stop offset="0" stop-color="#c5fae9"/><stop offset=".5" stop-color="#51eab9"/><stop offset="1" stop-color="#1ba679"/></linearGradient>
<linearGradient id="acc" x1="0" y1="0" x2="1" y2="1"><stop offset="0" stop-color="#9ceefc"/><stop offset="1" stop-color="#34d8f4"/></linearGradient>
<linearGradient id="badge" x1="0" y1="0" x2="0" y2="1"><stop offset="0" stop-color="#47ebb6"/><stop offset="1" stop-color="#138661"/></linearGradient>
<filter id="sh" x="-20%" y="-20%" width="140%" height="140%"><feDropShadow dx="0" dy="5" stdDeviation="5" flood-color="#000" flood-opacity=".35"/></filter>
<filter id="glow" x="-30%" y="-30%" width="160%" height="160%"><feGaussianBlur stdDeviation="9"/></filter>
</defs>
<circle cx="256" cy="232" r="174" fill="none" stroke="#9ceefc" stroke-opacity=".75" stroke-width="38.5" filter="url(#glow)"><animate attributeName="stroke-opacity" values=".35;.9;.35" dur="2.60s" begin="0.00s" repeatCount="indefinite" calcMode="spline" keyTimes="0;0.5;1" keySplines=".45 0 .55 1;.45 0 .55 1"/></circle>
<g filter="url(#sh)">
<g transform="translate(88,168) rotate(78) scale(0.8,0.8)"><g><animateTransform attributeName="transform" type="rotate" values="-7;7;-7" dur="2.50s" begin="0.00s" repeatCount="indefinite" calcMode="spline" keyTimes="0;0.5;1" keySplines=".45 0 .55 1;.45 0 .55 1"/><path d="M0,0 C-30,-10 -70,-5 -95,25 C-60,15 -30,12 0,0 Z" fill="url(#acc)" stroke="url(#ring)" stroke-width="2.5" stroke-linejoin="round"/><path d="M-6,-1 C-30,-4 -58,-4 -84,4" fill="none" stroke="#fff" stroke-opacity=".55" stroke-width="2" stroke-linecap="round"/></g></g>
<g transform="translate(424,168) rotate(-78) scale(-0.8,0.8)"><g><animateTransform attributeName="transform" type="rotate" values="-7;7;-7" dur="2.50s" begin="0.00s" repeatCount="indefinite" calcMode="spline" keyTimes="0;0.5;1" keySplines=".45 0 .55 1;.45 0 .55 1"/><path d="M0,0 C-30,-10 -70,-5 -95,25 C-60,15 -30,12 0,0 Z" fill="url(#acc)" stroke="url(#ring)" stroke-width="2.5" stroke-linejoin="round"/><path d="M-6,-1 C-30,-4 -58,-4 -84,4" fill="none" stroke="#fff" stroke-opacity=".55" stroke-width="2" stroke-linecap="round"/></g></g>
<g transform="translate(88,205) rotate(58) scale(0.9,0.9)"><g><animateTransform attributeName="transform" type="rotate" values="-7;7;-7" dur="2.50s" begin="0.25s" repeatCount="indefinite" calcMode="spline" keyTimes="0;0.5;1" keySplines=".45 0 .55 1;.45 0 .55 1"/><path d="M0,0 C-30,-10 -70,-5 -95,25 C-60,15 -30,12 0,0 Z" fill="url(#acc)" stroke="url(#ring)" stroke-width="2.5" stroke-linejoin="round"/><path d="M-6,-1 C-30,-4 -58,-4 -84,4" fill="none" stroke="#fff" stroke-opacity=".55" stroke-width="2" stroke-linecap="round"/></g></g>
<g transform="translate(424,205) rotate(-58) scale(-0.9,0.9)"><g><animateTransform attributeName="transform" type="rotate" values="-7;7;-7" dur="2.50s" begin="0.25s" repeatCount="indefinite" calcMode="spline" keyTimes="0;0.5;1" keySplines=".45 0 .55 1;.45 0 .55 1"/><path d="M0,0 C-30,-10 -70,-5 -95,25 C-60,15 -30,12 0,0 Z" fill="url(#acc)" stroke="url(#ring)" stroke-width="2.5" stroke-linejoin="round"/><path d="M-6,-1 C-30,-4 -58,-4 -84,4" fill="none" stroke="#fff" stroke-opacity=".55" stroke-width="2" stroke-linecap="round"/></g></g>
<g transform="translate(88,242) rotate(38) scale(0.95,0.95)"><g><animateTransform attributeName="transform" type="rotate" values="-7;7;-7" dur="2.50s" begin="0.50s" repeatCount="indefinite" calcMode="spline" keyTimes="0;0.5;1" keySplines=".45 0 .55 1;.45 0 .55 1"/><path d="M0,0 C-30,-10 -70,-5 -95,25 C-60,15 -30,12 0,0 Z" fill="url(#acc)" stroke="url(#ring)" stroke-width="2.5" stroke-linejoin="round"/><path d="M-6,-1 C-30,-4 -58,-4 -84,4" fill="none" stroke="#fff" stroke-opacity=".55" stroke-width="2" stroke-linecap="round"/></g></g>
<g transform="translate(424,242) rotate(-38) scale(-0.95,0.95)"><g><animateTransform attributeName="transform" type="rotate" values="-7;7;-7" dur="2.50s" begin="0.50s" repeatCount="indefinite" calcMode="spline" keyTimes="0;0.5;1" keySplines=".45 0 .55 1;.45 0 .55 1"/><path d="M0,0 C-30,-10 -70,-5 -95,25 C-60,15 -30,12 0,0 Z" fill="url(#acc)" stroke="url(#ring)" stroke-width="2.5" stroke-linejoin="round"/><path d="M-6,-1 C-30,-4 -58,-4 -84,4" fill="none" stroke="#fff" stroke-opacity=".55" stroke-width="2" stroke-linecap="round"/></g></g>
<g transform="translate(222,424) rotate(-14) scale(0.9,0.9)"><g><animateTransform attributeName="transform" type="rotate" values="-6;6;-6" dur="2.50s" begin="0.00s" repeatCount="indefinite" calcMode="spline" keyTimes="0;0.5;1" keySplines=".45 0 .55 1;.45 0 .55 1"/><path d="M0,0 C-20,-30 -60,-40 -100,-30 C-70,-14 -40,-4 0,0 Z" fill="url(#acc)" stroke="url(#ring)" stroke-width="2.5" stroke-linejoin="round"/><path d="M-6,-1 C-30,-4 -58,-4 -84,4" fill="none" stroke="#fff" stroke-opacity=".55" stroke-width="2" stroke-linecap="round"/></g></g>
<g transform="translate(290,424) rotate(14) scale(-0.9,0.9)"><g><animateTransform attributeName="transform" type="rotate" values="-6;6;-6" dur="2.50s" begin="0.00s" repeatCount="indefinite" calcMode="spline" keyTimes="0;0.5;1" keySplines=".45 0 .55 1;.45 0 .55 1"/><path d="M0,0 C-20,-30 -60,-40 -100,-30 C-70,-14 -40,-4 0,0 Z" fill="url(#acc)" stroke="url(#ring)" stroke-width="2.5" stroke-linejoin="round"/><path d="M-6,-1 C-30,-4 -58,-4 -84,4" fill="none" stroke="#fff" stroke-opacity=".55" stroke-width="2" stroke-linecap="round"/></g></g>
<g transform="translate(222,424) rotate(8) scale(0.98,0.98)"><g><animateTransform attributeName="transform" type="rotate" values="-6;6;-6" dur="2.50s" begin="0.20s" repeatCount="indefinite" calcMode="spline" keyTimes="0;0.5;1" keySplines=".45 0 .55 1;.45 0 .55 1"/><path d="M0,0 C-20,-30 -60,-40 -100,-30 C-70,-14 -40,-4 0,0 Z" fill="url(#acc)" stroke="url(#ring)" stroke-width="2.5" stroke-linejoin="round"/><path d="M-6,-1 C-30,-4 -58,-4 -84,4" fill="none" stroke="#fff" stroke-opacity=".55" stroke-width="2" stroke-linecap="round"/></g></g>
<g transform="translate(290,424) rotate(-8) scale(-0.98,0.98)"><g><animateTransform attributeName="transform" type="rotate" values="-6;6;-6" dur="2.50s" begin="0.20s" repeatCount="indefinite" calcMode="spline" keyTimes="0;0.5;1" keySplines=".45 0 .55 1;.45 0 .55 1"/><path d="M0,0 C-20,-30 -60,-40 -100,-30 C-70,-14 -40,-4 0,0 Z" fill="url(#acc)" stroke="url(#ring)" stroke-width="2.5" stroke-linejoin="round"/><path d="M-6,-1 C-30,-4 -58,-4 -84,4" fill="none" stroke="#fff" stroke-opacity=".55" stroke-width="2" stroke-linecap="round"/></g></g>
<g transform="translate(222,424) rotate(30) scale(1.06,1.06)"><g><animateTransform attributeName="transform" type="rotate" values="-6;6;-6" dur="2.50s" begin="0.40s" repeatCount="indefinite" calcMode="spline" keyTimes="0;0.5;1" keySplines=".45 0 .55 1;.45 0 .55 1"/><path d="M0,0 C-20,-30 -60,-40 -100,-30 C-70,-14 -40,-4 0,0 Z" fill="url(#acc)" stroke="url(#ring)" stroke-width="2.5" stroke-linejoin="round"/><path d="M-6,-1 C-30,-4 -58,-4 -84,4" fill="none" stroke="#fff" stroke-opacity=".55" stroke-width="2" stroke-linecap="round"/></g></g>
<g transform="translate(290,424) rotate(-30) scale(-1.06,1.06)"><g><animateTransform attributeName="transform" type="rotate" values="-6;6;-6" dur="2.50s" begin="0.40s" repeatCount="indefinite" calcMode="spline" keyTimes="0;0.5;1" keySplines=".45 0 .55 1;.45 0 .55 1"/><path d="M0,0 C-20,-30 -60,-40 -100,-30 C-70,-14 -40,-4 0,0 Z" fill="url(#acc)" stroke="url(#ring)" stroke-width="2.5" stroke-linejoin="round"/><path d="M-6,-1 C-30,-4 -58,-4 -84,4" fill="none" stroke="#fff" stroke-opacity=".55" stroke-width="2" stroke-linecap="round"/></g></g>
<circle cx="256" cy="232" r="170" fill="none" stroke="url(#ring)" stroke-width="26.5"/>
<circle cx="256" cy="232" r="157.75" fill="none" stroke="#000" stroke-opacity=".18" stroke-width="3"/>
<circle cx="256" cy="232" r="182.25" fill="none" stroke="#fff" stroke-opacity=".55" stroke-width="3"/>
<circle cx="256" cy="232" r="170" fill="none" stroke="#fff" stroke-opacity=".45" stroke-width="2"/>
<circle cx="256" cy="232" r="189.25" fill="none" stroke="url(#ring)" stroke-width="3"/>
<g transform="rotate(0 256 232)"><circle cx="256" cy="232" r="170" fill="none" stroke="#fff" stroke-opacity=".8" stroke-width="11.1" stroke-linecap="round" stroke-dasharray="90 978.1"><animateTransform attributeName="transform" type="rotate" values="0 256 232;360 256 232" dur="3.40s" repeatCount="indefinite"/></circle></g>
<g transform="rotate(180 256 232)"><circle cx="256" cy="232" r="170" fill="none" stroke="#fff" stroke-opacity=".8" stroke-width="11.1" stroke-linecap="round" stroke-dasharray="90 978.1"><animateTransform attributeName="transform" type="rotate" values="0 256 232;360 256 232" dur="3.40s" repeatCount="indefinite"/></circle></g>
<g><animate attributeName="opacity" values="1;.55;1" dur="1.80s" begin="0.00s" repeatCount="indefinite" calcMode="spline" keyTimes="0;0.5;1" keySplines=".45 0 .55 1;.45 0 .55 1"/>
<path d="M89.78257315334051,113.13582421029184 L101.78257315334051,128.13582421029184 L89.78257315334051,143.13582421029184 L77.78257315334051,128.13582421029184 Z" fill="url(#acc)" stroke="#ffffff" stroke-opacity=".85" stroke-width="2.5" stroke-linejoin="round"/>
<path d="M422.21742684665946,113.13582421029184 L434.21742684665946,128.13582421029184 L422.21742684665946,143.13582421029184 L410.21742684665946,128.13582421029184 Z" fill="url(#acc)" stroke="#ffffff" stroke-opacity=".85" stroke-width="2.5" stroke-linejoin="round"/>
</g>
<g><animateTransform attributeName="transform" type="translate" values="0 0;0 -4;0 0" dur="2.40s" begin="0.00s" repeatCount="indefinite" calcMode="spline" keyTimes="0;0.5;1" keySplines=".45 0 .55 1;.45 0 .55 1"/>
<path d="M256,22.75 L272.0,42.75 L256,62.75 L240.0,42.75 Z" fill="url(#acc)" stroke="#ffffff" stroke-opacity=".85" stroke-width="2.5" stroke-linejoin="round"/>
</g>
<g transform="translate(34,70)"><g><animateTransform attributeName="transform" type="scale" values="0.3;1;0.3" dur="2.00s" begin="0.00s" repeatCount="indefinite" calcMode="spline" keyTimes="0;0.5;1" keySplines=".45 0 .55 1;.45 0 .55 1"/><animate attributeName="opacity" values=".3;1;.3" dur="2.00s" begin="0.00s" repeatCount="indefinite" calcMode="spline" keyTimes="0;0.5;1" keySplines=".45 0 .55 1;.45 0 .55 1"/><path d="M0,-15 Q0,0 15,0 Q0,0 0,15 Q0,0 -15,0 Q0,0 0,-15 Z" fill="#fff" stroke="#34d8f4" stroke-width="1.5"/></g></g>
<g transform="translate(478,70)"><g><animateTransform attributeName="transform" type="scale" values="0.3;1;0.3" dur="2.00s" begin="0.50s" repeatCount="indefinite" calcMode="spline" keyTimes="0;0.5;1" keySplines=".45 0 .55 1;.45 0 .55 1"/><animate attributeName="opacity" values=".3;1;.3" dur="2.00s" begin="0.50s" repeatCount="indefinite" calcMode="spline" keyTimes="0;0.5;1" keySplines=".45 0 .55 1;.45 0 .55 1"/><path d="M0,-15 Q0,0 15,0 Q0,0 0,15 Q0,0 -15,0 Q0,0 0,-15 Z" fill="#fff" stroke="#34d8f4" stroke-width="1.5"/></g></g>
<g transform="translate(22,330)"><g><animateTransform attributeName="transform" type="scale" values="0.3;1;0.3" dur="2.00s" begin="1.00s" repeatCount="indefinite" calcMode="spline" keyTimes="0;0.5;1" keySplines=".45 0 .55 1;.45 0 .55 1"/><animate attributeName="opacity" values=".3;1;.3" dur="2.00s" begin="1.00s" repeatCount="indefinite" calcMode="spline" keyTimes="0;0.5;1" keySplines=".45 0 .55 1;.45 0 .55 1"/><path d="M0,-12 Q0,0 12,0 Q0,0 0,12 Q0,0 -12,0 Q0,0 0,-12 Z" fill="#fff" stroke="#34d8f4" stroke-width="1.5"/></g></g>
<g transform="translate(490,330)"><g><animateTransform attributeName="transform" type="scale" values="0.3;1;0.3" dur="2.00s" begin="1.50s" repeatCount="indefinite" calcMode="spline" keyTimes="0;0.5;1" keySplines=".45 0 .55 1;.45 0 .55 1"/><animate attributeName="opacity" values=".3;1;.3" dur="2.00s" begin="1.50s" repeatCount="indefinite" calcMode="spline" keyTimes="0;0.5;1" keySplines=".45 0 .55 1;.45 0 .55 1"/><path d="M0,-12 Q0,0 12,0 Q0,0 0,12 Q0,0 -12,0 Q0,0 0,-12 Z" fill="#fff" stroke="#34d8f4" stroke-width="1.5"/></g></g>
<g transform="translate(256,428)"><g><animateTransform attributeName="transform" type="scale" values="1;1.065;1" dur="2.85s" begin="0.00s" repeatCount="indefinite" calcMode="spline" keyTimes="0;0.5;1" keySplines=".45 0 .55 1;.45 0 .55 1"/><path d="M0,-52 L45,-26 L45,26 L0,52 L-45,26 L-45,-26 Z" fill="url(#badge)" stroke="url(#ring)" stroke-width="7" stroke-linejoin="round"/><path d="M0,-52 L45,-26 L45,26 L0,52 L-45,26 L-45,-26 Z" fill="none" stroke="#fff" stroke-opacity=".25" stroke-width="2" transform="scale(.82)"/><text x="0" y="15.1" text-anchor="middle" font-family="Arial Black, Arial, Helvetica, sans-serif" font-weight="900" font-size="42" fill="#fff" stroke="#07402e" stroke-width="5" paint-order="stroke" stroke-linejoin="round">91</text></g></g>
</g></svg>